@startuml

!include plantuml.style

hide stereotype

' left to right direction

title Tiger components

' component TigerServer  <<NextRelease>>

rectangle "Test environment" as tsys <<Rect>> {
    component "Simulators" as sims <<Other>>
    component "RU/TU service\ninstances" as rutu <<Other>>
    component "locally started\ndocker containers" as locdock <<Other>>
    component "helm charts on\nlocal/remote kubernetes" as clddock <<Other>>
}

rectangle "Current test project" as tiger {
    component TigerTestEnvMgr as tem <<Tiger>>
    component TigerProxy as tp <<Tiger>>
    component TigerTestLib <<Tiger>> [
      TigerTestLib

      ---
      Validation & Workflow steps
      TestContext steps
      TigerGlobalConfiguration
      JsonChecker
      PolarionToolbox
      SerenityIntegration ...
    ]

    component tex <<Tiger>> [
      Tiger Extenions

      ---
      Cloud, CATS
      Konnektormanagement
      PSSim, HTTP Client
      FHIR validation
      Zi0n mock server
      KartenTerminal Robot
    ]

    ' tp
    interface "Local Http traffic" as ihttp <<HTTP>>
    interface "ProxyConfiguration" as ipconf
    ' ts
    interface "IRBelMessaging" as irbel

    component "Current test suite\n via TigerCucumberRunner"  as tdir <<Current>>
}

'tsys
interface "Routed HTTP traffic" as iroutes <<HTTP>>

'sims -up- locdock <<HTTP2>>
'rutu -up- clddock <<HTTP2>>
locdock -down- rutu <<HTTP2>>
locdock -right- clddock <<HTTP2>>
sims -left- rutu <<HTTP2>>

ihttp -down- tp <<HTTP>>
tdir --> ihttp <<HTTP>> : test traffic

irbel -up-> tdir
tp -up-> irbel : return traffic\nmessages\nfrom test traffic

tsys <--- iroutes <<HTTP>>
'iroutes <--up-> tsys <<HTTP>>

tp -left-> iroutes <<HTTP>> : routed test traffic

ipconf -- tp
tem --> ipconf : configure URLs, \nURL mappings and certs

tdir -left-> tem : build me\na test env

tem -down--> clddock : creates helm chart instances\non local or remote cluster
locdock <-down- tem : creates containers
tem -right--> sims : starts simulators from  e.g. jar files
tdir -down-- tex : use extensions for standard functionality
tdir -right- TigerTestLib : use generic helpers


@enduml
